<?xml version="1.0" encoding="UTF-8"?>
<svg width="982px" height="940px" viewBox="0 0 982 940" version="1.1" xmlns="http://www.w3.org/2000/svg" xmlns:xlink="http://www.w3.org/1999/xlink">
    <title>Image</title>
    <defs>
        <linearGradient x1="49.325979%" y1="0%" x2="49.325979%" y2="136.983809%" id="linearGradient-1">
            <stop stop-color="#FF4842" offset="0%"></stop>
            <stop stop-color="#FFF4E5" stop-opacity="0" offset="100%"></stop>
        </linearGradient>
        <polygon id="path-2" points="0 0 202.459344 0 202.459344 99.1808725 0 99.1808725"></polygon>
    </defs>
    <g id="♦️---Myaloha-Class" stroke="none" stroke-width="1" fill="none" fill-rule="evenodd">
        <g id="Homepage" transform="translate(-741.000000, 166.000000)">
            <g id="02-Header" transform="translate(0.000000, -165.534888)">
                <g id="Image" transform="translate(741.000097, 0.000000)">
                    <path d="M414.57949,892.862743 C666.375553,867.253641 874.786656,682.718863 966.106615,447.5 C1057.42657,212.281137 713.605407,11.9096304 465.965987,0.429943258 C218.326568,-11.0497438 27.1618864,209.031009 27.1618864,459.706561 C27.1618864,710.382113 162.783428,918.471845 414.57949,892.862743 Z" id="Oval" fill="url(#linearGradient-1)" transform="translate(504.161886, 447.500000) scale(-1, 1) translate(-504.161886, -447.500000) "></path>
                    <g id="image" transform="translate(0.000000, 304.535647)">
                        <path d="M574.418005,549.535712 C574.538171,549.465894 575.286777,550.454717 576.394259,552.401513 C577.506613,554.341815 578.890153,557.2888 580.176261,561.091467 C582.811809,568.670821 584.466536,579.859623 583.485716,592.061604 C582.513016,604.261961 579.692347,614.971777 577.516356,622.594971 C575.290025,630.221412 573.651536,634.850533 573.368982,634.772596 C573.057198,634.686541 574.163057,629.896675 575.989915,622.195545 C577.76968,614.496038 580.309419,603.843051 581.261009,591.892741 C582.217471,579.945679 580.856665,569.071871 578.669307,561.554217 C576.545279,553.999218 574.067248,549.717565 574.418005,549.535712" id="Fill-1" fill="#FFFFFF"></path>
                        <path d="M581.936378,488.474824 C582.076032,488.413124 582.982153,490.070905 584.49398,493.128301 C586.004182,496.185697 588.126586,500.641084 590.637095,506.200576 C595.617516,517.31956 602.320867,532.884189 607.182745,550.954162 C609.573088,559.993207 611.201833,568.780582 612.026761,576.850289 C612.858185,584.918371 612.942626,592.249302 612.526914,598.367341 C612.124194,604.488628 611.35123,609.40027 610.607495,612.740187 C609.871881,616.086598 609.28891,617.888887 609.157376,617.86001 C608.744912,617.7801 610.565275,610.413448 610.951757,598.294275 C611.432423,586.199458 609.844275,569.395958 605.026241,551.528946 C600.219574,533.655439 593.790658,518.082691 589.188599,506.825694 C586.871331,501.193136 584.997381,496.633833 583.699905,493.482264 C582.433284,490.317705 581.795101,488.538148 581.936378,488.474824" id="Fill-3" fill="#FFFFFF"></path>
                        <path d="M303.694034,440.142099 C303.95223,440.419749 301.422235,442.832543 298.138762,447.312285 C297.323577,448.437498 296.438566,449.66825 295.61039,451.07436 C294.704268,452.428512 293.91669,453.982377 293.039798,455.586576 C291.409428,458.856674 289.861877,462.573285 288.668329,466.619505 C287.526746,470.680337 286.860958,474.650243 286.502082,478.287294 C286.393282,480.11069 286.234142,481.846408 286.279611,483.473338 C286.234142,485.10514 286.328327,486.620037 286.419264,488.006662 C286.817113,493.545047 287.677766,496.933674 287.310771,497.032718 C287.0883,497.109032 285.672282,493.835686 284.850602,488.167407 C284.654113,486.751555 284.465744,485.196066 284.430018,483.512307 C284.303356,481.830171 284.394293,480.031129 284.451129,478.136291 C284.707701,474.359603 285.337764,470.217587 286.524816,466.002505 C287.762208,461.800412 289.429926,457.958777 291.224307,454.623731 C292.182392,452.987059 293.060908,451.415333 294.064462,450.059557 C294.988446,448.651824 295.977386,447.434061 296.896498,446.339699 C300.60705,441.976861 303.547886,439.960247 303.694034,440.142099" id="Fill-5" fill="#FFFFFF"></path>
                        <path d="M309.632216,459.691247 C309.818962,459.990005 308.409439,461.068131 306.567966,463.130209 C305.635863,464.148258 304.653419,465.468313 303.687214,466.997823 C302.761606,468.553311 301.874971,470.33774 301.178329,472.305644 C300.512541,474.28329 300.111444,476.234958 299.882477,478.032375 C299.69898,479.831416 299.658383,481.474584 299.765559,482.853091 C299.944185,485.610106 300.39075,487.329586 300.057856,487.449739 C299.819146,487.550407 298.815592,485.977058 298.201768,483.062546 C297.881865,481.60935 297.750331,479.829793 297.833149,477.858641 C297.963059,475.893984 298.339797,473.739356 299.068917,471.578234 C299.827266,469.426853 300.86005,467.499541 301.969155,465.870986 C303.117234,464.266787 304.318901,462.948356 305.465356,462.001749 C307.745275,460.082555 309.505554,459.462308 309.632216,459.691247" id="Fill-7" fill="#FFFFFF"></path>
                        <path d="M227.19837,257.507312 C227.313665,257.406643 228.312348,258.388972 230.025534,260.262702 C230.895931,261.189826 231.923843,262.357254 233.011839,263.797461 C234.111201,265.224679 235.433034,266.809394 236.673674,268.713975 C237.31348,269.654087 237.985764,270.638039 238.68403,271.664207 C239.3758,272.69687 240.002616,273.826954 240.700881,274.968403 C242.12989,277.235065 243.411127,279.79399 244.804411,282.463326 C247.435086,287.87831 249.950467,294.023952 251.954327,300.685925 C253.893233,307.367382 255.124129,313.894589 255.859744,319.86812 C256.140674,322.867064 256.455706,325.711757 256.488183,328.389211 C256.522284,329.727126 256.609974,331.016331 256.590487,332.260072 C256.562881,333.500566 256.533652,334.690726 256.50767,335.827305 C256.501174,338.103709 256.252721,340.14955 256.106573,341.946967 C255.975039,343.746009 255.747697,345.283637 255.520354,346.533873 C255.101395,349.039217 254.79773,350.406358 254.645086,350.385491 C254.252109,350.333292 254.992595,344.781919 254.930888,335.811068 C254.909778,334.689103 254.890291,333.516803 254.869181,332.292546 C254.843199,331.069912 254.713289,329.800192 254.640215,328.486632 C254.529791,325.854641 254.149805,323.063529 253.820158,320.123039 C252.983863,314.266413 251.717242,307.877218 249.814061,301.319161 C247.845926,294.780588 245.437721,288.727496 242.954818,283.356352 C241.634609,280.709748 240.434566,278.160565 239.098118,275.890655 C238.443697,274.747582 237.86235,273.612627 237.22092,272.571846 C236.572994,271.534313 235.952674,270.537371 235.35996,269.585893 C230.535431,262.021152 226.894706,257.765477 227.19837,257.507312" id="Fill-9" fill="#FFFFFF"></path>
                        <path d="M252.462762,267.958962 C252.652755,267.790099 255.215228,270.186655 258.474343,274.806035 C260.114456,277.10517 261.842258,280.003445 263.524591,283.344986 C265.158208,286.709258 266.717127,290.529785 267.961014,294.670178 C269.167553,298.821936 269.934021,302.877897 270.391954,306.589638 C270.794674,310.309496 270.919713,313.680263 270.791427,316.502225 C270.565708,322.149396 269.716422,325.55426 269.466345,325.515622 C269.107469,325.471452 269.394895,322.024372 269.213021,316.500601 C269.139947,313.740339 268.855769,310.462122 268.353992,306.857545 C267.797003,303.259463 266.991562,299.336644 265.822373,295.303414 C264.612586,291.28155 263.155972,287.550326 261.668503,284.22827 C260.130695,280.927321 258.588014,278.022552 257.149262,275.66334 C254.299364,270.928679 252.186704,268.191149 252.462762,267.958962" id="Fill-11" fill="#FFFFFF"></path>
                        <polygon id="Fill-13" fill="#EC3223" points="163.995737 450.505141 162.053584 446.540106 107.98508 487.846612 131.573472 526.05513 185.395147 480.681297"></polygon>
                        <polygon id="Fill-15" fill="#D7D4D4" points="110.250871 488.729896 130.973125 524.561342 132.298207 523.970321 113.844504 490.467237"></polygon>
                        <path d="M162.927716,449.720253 L110.250871,488.729247 C110.250871,488.729247 110.471718,489.567067 111.778936,490.083399 C113.087779,490.59973 113.844504,490.468212 113.844504,490.468212 L169.225098,452.569817 C169.225098,452.569817 166.032562,451.827794 164.87474,450.963994 C163.715294,450.096947 162.927716,449.720253 162.927716,449.720253" id="Fill-17" fill="#EC3223"></path>
                        <path d="M112.855402,489.592234 L131.603026,525.118427 L134.623432,530.038188 L192.3489,487.320701 C192.3489,487.320701 186.269116,478.247558 182.618648,472.769251 C178.968179,467.290943 171.802024,454.371294 171.412294,453.543215 C171.020941,452.715137 170.579247,451.041119 170.579247,451.041119 L112.855402,489.592234 Z" id="Fill-19" fill="#EC3223"></path>
                        <polygon id="Fill-21" fill="#EC3223" points="646.611377 184.890994 648.241747 181.560819 693.64526 216.247568 673.837247 248.333176 628.641589 210.230197"></polygon>
                        <polygon id="Fill-23" fill="#D7D4D4" points="691.742892 216.988942 674.343084 247.077419 673.229106 246.582196 688.725734 218.448633"></polygon>
                        <path d="M647.508893,184.230642 L691.743217,216.988455 C691.743217,216.988455 691.556471,217.691509 690.460357,218.125033 C689.360994,218.558556 688.724435,218.448146 688.724435,218.448146 L642.219935,186.623951 C642.219935,186.623951 644.900951,186.00208 645.873652,185.27467 C646.846352,184.54726 647.508893,184.230642 647.508893,184.230642" id="Fill-25" fill="#F5F3F3"></path>
                        <path d="M689.555859,217.71278 L673.814025,247.546339 L671.277534,251.676989 L622.801652,215.804952 C622.801652,215.804952 627.908735,208.185005 630.972985,203.58511 C634.040483,198.985215 640.056935,188.135763 640.383334,187.440826 C640.711357,186.747513 641.083224,185.341404 641.083224,185.341404 L689.555859,217.71278 Z" id="Fill-27" fill="#EC3223"></path>
                        <path d="M99.4444775,122.460042 C99.4444775,122.460042 96.0164797,124.832243 97.7296667,128.787536 C99.4444775,132.742829 106.959766,144.475565 117.112225,144.079387 C117.527937,144.064773 104.322595,122.460042 104.322595,122.460042 L99.4444775,122.460042 Z" id="Fill-29" fill="#FF7B5B"></path>
                        <path d="M83.9137477,338.75643 C83.9137477,338.75643 71.2183018,327.416625 67.1537455,329.447853 C62.1879392,331.930464 33.7652748,359.775011 34.8760045,372.89275 C35.3323131,378.265518 41.5874752,373.662375 52.7337455,362.10175 C63.8832635,350.542747 77.9216531,355.496605 77.9216531,355.496605 L83.9137477,338.75643 Z" id="Fill-31" fill="#EC3223"></path>
                        <path d="M114.758582,357.88066 L99.4324608,348.687364 C99.4324608,348.687364 59.7060103,385.926543 65.9124563,390.891767 C70.6200667,394.657089 73.3871477,391.279828 84.5350419,379.719202 C95.6813121,368.161823 109.804143,374.807559 109.804143,374.807559 L114.758582,357.88066 Z" id="Fill-33" fill="#EC3223"></path>
                        <polygon id="Fill-35" fill="#F3A683" points="208.379458 235.365628 211.253715 276.17204 147.454958 259.55364"></polygon>
                        <path d="M147.454958,260.957639 C147.454958,260.957639 203.261008,264.474537 210.691854,261.995173 C210.691854,261.995173 221.597791,369.120933 202.192499,380.678312 C182.785582,392.238937 139.236532,375.312038 139.236532,375.312038 L150.995003,352.194033 L176.346922,350.542747 L176.346922,309.260597 L174.528183,309.673012 L147.454958,260.957639 Z" id="Fill-37" fill="#112129"></path>
                        <path d="M77.500745,334.029725 C77.500745,334.029725 63.4639793,339.810038 68.0059545,353.846781 C68.0059545,353.846781 115.921601,391.413944 139.237182,382.743474 C152.299623,377.887037 166.331518,340.831335 176.147835,309.172755 L210.692504,261.99501 C210.692504,261.99501 194.400177,262.810099 188.965072,262.788991 C178.57715,262.750023 147.455608,260.957477 147.455608,260.957477 C147.455608,260.957477 131.199006,346.002766 125.406648,348.066468 C119.61429,350.128546 77.500745,334.029725 77.500745,334.029725" id="Fill-39" fill="#22343D"></path>
                        <path d="M160.459427,154.292355 C160.459427,154.292355 193.904734,122.916297 199.684101,114.658243 C205.463468,106.401813 217.853625,78.7423662 233.126159,67.183364 L225.695312,51.4953348 C225.695312,51.4953348 230.238911,49.0192176 233.126159,55.6227381 C233.126159,55.6227381 243.859966,34.1576434 246.337997,34.5684353 C248.817652,34.9808509 241.385182,51.0829193 241.385182,51.0829193 C241.385182,51.0829193 251.709772,36.2197213 254.598643,36.6337606 C257.485891,37.0461762 247.166173,53.3414629 247.166173,53.3414629 C247.166173,53.3414629 258.724907,39.9363327 260.378011,41.5876187 C262.02949,43.2389047 251.29406,53.3414629 251.29406,53.3414629 C251.29406,53.3414629 262.854418,46.7054688 264.093434,48.8925703 C265.33245,51.0829193 252.533076,56.8616085 252.533076,56.8616085 C252.533076,56.8616085 251.29406,66.3569091 243.450749,70.4843123 C243.450749,70.4843123 227.918396,112.443539 213.880006,126.066243 L168.783405,172.928993 L160.459427,154.292355 Z" id="Fill-41" fill="#FFC6B2"></path>
                        <path d="M120.535676,170.553707 C120.535676,170.553707 88.8457775,203.69958 80.534791,209.400333 C72.2221806,215.099461 44.445818,227.23 32.7441829,242.395203 L17.1241401,234.817473 C17.1241401,234.817473 14.6055117,239.33456 21.1838248,242.284793 C21.1838248,242.284793 -0.386091905,252.817627 0.00526169909,255.300239 C0.393367555,257.781227 16.5655275,250.500631 16.5655275,250.500631 C16.5655275,250.500631 1.60477746,260.684373 1.99125945,263.576153 C2.37774143,266.467933 18.7691243,256.300428 18.7691243,256.300428 C18.7691243,256.300428 5.25524593,267.732783 6.8921108,269.398682 C8.52572792,271.066205 18.7317752,260.429455 18.7317752,260.429455 C18.7317752,260.429455 11.9862031,271.925133 14.1654419,273.183488 C16.3414329,274.441843 22.2409667,261.699175 22.2409667,261.699175 C22.2409667,261.699175 31.7471243,260.552855 35.9513338,252.746185 C35.9513338,252.746185 75.6988946,236.933132 89.456354,223.02466 L138.919552,187.980701 L120.535676,170.553707 Z" id="Fill-43" fill="#FFC6B2"></path>
                        <path d="M132.415937,157.343094 L116.388302,173.031123 L120.452859,190.716283 C120.452859,190.716283 136.243408,228.621172 138.630503,237.868049 C142.341054,252.247389 136.339217,274.171986 136.339217,274.171986 C136.339217,274.171986 163.108777,271.949164 187.466886,271.124333 C211.82337,270.297878 219.791719,262.45224 219.791719,262.45224 C219.791719,262.45224 198.673239,192.124016 184.092476,172.464458 C169.510088,152.808146 164.206516,146.654386 164.206516,146.654386 L142.73728,151.346831 L132.415937,157.343094 Z" id="Fill-45" fill="#FFFFFF"></path>
                        <path d="M179.454367,170.146325 L196.154286,159.477101 C196.154286,159.477101 198.705392,148.04637 178.566108,134.563303 L154.95011,149.35993 L179.454367,170.146325 Z" id="Fill-47" fill="#FFFFFF"></path>
                        <path d="M119.765798,171.790629 C110.610397,173.074963 93.8796241,196.275775 92.013793,196.231935 C92.013793,196.231935 103.788502,215.444981 113.116034,216.068476 C113.116034,216.068476 154.162694,166.966666 119.765798,171.790629" id="Fill-49" fill="#FFFFFF"></path>
                        <path d="M152.083973,156.694595 C152.083973,156.694595 138.776327,146.752781 139.237507,142.78937 C139.354426,141.790805 141.199146,140.170369 141.678189,138.731785 C144.258525,130.991686 131.818027,111.047983 124.174453,106.844267 C118.161248,103.538447 120.796795,103.246184 108.141946,110.765462 C95.4870968,118.28474 102.697097,131.287197 108.348178,138.012494 C113.690723,144.369214 119.80948,147.092131 125.314412,147.551634 L133.141484,164.934788 L152.083973,156.694595 Z" id="Fill-51" fill="#FFC6B2"></path>
                        <path d="M128.071588,170.495092 C125.554583,164.321848 130.320653,156.546028 138.717705,153.121679 C147.118004,149.695707 155.963245,151.923401 158.485121,158.093398 C161.000502,164.265019 152.549862,173.542746 147.832509,175.466811 C143.115155,177.390875 130.586968,176.665089 128.071588,170.495092" id="Fill-53" fill="#FFC6B2"></path>
                        <path d="M108.348827,138.012656 C108.348827,138.012656 104.032571,137.773974 103.553528,140.649518 C103.072861,143.526685 111.465041,143.526685 114.582879,141.368809 L108.348827,138.012656 Z" id="Fill-55" fill="#FFC6B2"></path>
                        <path d="M110.507118,140.64968 C109.687062,135.45227 104.148028,131.587903 104.424087,126.523634 C107.07912,126.544742 108.784188,123.256783 107.576026,120.446187 C107.100231,119.342083 106.294789,118.397099 105.780021,117.307607 C105.266877,116.21974 105.130472,114.794145 105.918051,114.178769 C106.291542,113.88813 106.796566,113.837796 107.280481,113.789085 C111.216751,113.384788 117.960699,114.565206 121.583562,113.22242 C125.03267,111.944581 128.728607,109.458722 128.369731,105.233898 C128.056323,101.554631 124.806952,98.5719245 121.822271,96.318252 C120.112332,95.0258 115.226096,91.6469148 113.382999,91.953791 C110.568825,92.4214118 109.886798,96.1753678 109.683814,99.3171952 C107.715679,97.4434646 104.812193,97.743846 103.100629,99.2684847 C101.389066,100.793123 100.578753,103.215659 99.8333953,105.553763 C99.0864133,107.893491 98.2955867,110.322521 96.6067579,111.876386 C95.0332241,113.324712 92.5438254,114.420698 92.8702241,116.883826 C93.2583299,119.819446 97.09392,120.863474 98.8671903,123.367194 C98.4303682,122.753442 98.060125,126.673013 98.3118254,127.3371 C99.0685507,129.339101 100.957116,130.664027 102.322794,132.195161 C105.231152,135.458764 106.653666,138.745099 110.507118,140.64968" id="Fill-57" fill="#EC3223"></path>
                        <path d="M134.619372,128.765292 L124.785192,133.850668 C124.785192,133.850668 136.59725,142.423717 134.619372,128.765292" id="Fill-59" fill="#FFFFFF"></path>
                        <path d="M121.089904,130.781419 C121.627407,131.801093 120.831708,133.275397 119.313386,134.074249 C117.795064,134.873102 116.12897,134.694496 115.591467,133.674823 C115.055589,132.65515 115.849663,131.182469 117.367985,130.381993 C118.887931,129.583141 120.552402,129.761746 121.089904,130.781419" id="Fill-61" fill="#FFB2A0"></path>
                        <path d="M135.449496,120.97356 C135.986998,121.993233 135.1913,123.467538 133.672978,124.26639 C132.154656,125.065242 130.488561,124.886637 129.951059,123.866964 C129.415181,122.84729 130.209255,121.372986 131.727577,120.574134 C133.247523,119.775281 134.911994,119.953887 135.449496,120.97356" id="Fill-63" fill="#FFB2A0"></path>
                        <path d="M127.754445,128.404672 C127.708977,128.347843 127.892474,128.105914 128.317929,127.799038 C128.723898,127.485667 129.430283,127.147941 129.954794,126.582899 C130.474434,126.035718 130.661179,124.894268 129.865481,124.733523 C129.038929,124.452626 128.10033,125.400857 127.023702,126.302002 C126.757386,126.522823 126.494319,126.74202 126.232875,126.95797 C125.989294,127.182038 125.47615,127.510022 124.943519,127.443451 C123.928598,127.279459 123.496648,126.602383 123.106918,126.149375 C122.327459,125.149186 121.846792,124.101911 121.580477,123.195895 C121.052718,121.36438 121.289803,120.182339 121.416465,120.192021 C121.593468,120.183963 121.651927,121.320541 122.322587,122.931235 C122.660353,123.731711 123.165377,124.640974 123.900992,125.499902 C124.259868,125.935049 124.711305,126.34097 125.032832,126.35396 C125.167614,126.360454 125.273166,126.314991 125.52649,126.102289 C125.784686,125.886339 126.044506,125.667141 126.307573,125.44632 C126.849947,125.007926 127.319247,124.56466 127.939567,124.152245 C128.542024,123.746324 129.401053,123.489782 130.170769,123.751195 C130.99245,123.967145 131.47474,124.925118 131.331839,125.590828 C131.239278,126.269528 130.901513,126.769622 130.518278,127.134951 C129.707965,127.812027 128.983718,127.976019 128.527409,128.180603 C128.059733,128.357585 127.803161,128.467995 127.754445,128.404672" id="Fill-65" fill="#FF7B5B"></path>
                        <path d="M125.314575,147.551796 C125.314575,147.551796 131.587599,147.587517 134.991239,145.491342 C134.991239,145.491342 132.112111,149.027724 126.350606,149.943482 L125.314575,147.551796 Z" id="Fill-67" fill="#FFA192"></path>
                        <path d="M128.03505,119.423592 C127.978215,119.733715 127.101323,119.829512 126.174091,120.238681 C125.233868,120.618623 124.555089,121.182041 124.293645,121.006683 C124.025706,120.865422 124.469023,119.745081 125.738893,119.210889 C127.007138,118.67345 128.117868,119.131329 128.03505,119.423592" id="Fill-69" fill="#22343D"></path>
                        <path d="M115.741838,127.486479 C115.504752,127.311121 115.87662,126.30119 116.779493,125.289635 C117.693734,124.256972 118.8613,123.912752 118.984714,124.201767 C119.114624,124.482664 118.403367,125.137009 117.602798,126.044648 C116.789237,126.949039 115.99841,127.678073 115.741838,127.486479" id="Fill-71" fill="#22343D"></path>
                        <path d="M110.976418,125.927905 C110.468145,125.55121 110.07192,123.938893 112.017321,121.766404 C113.980584,119.545206 116.174438,119.936513 116.437506,120.553513 C116.72006,121.159147 115.989316,122.021323 114.266386,123.974614 C112.517474,125.92141 111.526911,126.340321 110.976418,125.927905" id="Fill-73" fill="#FF7B5B"></path>
                        <path d="M121.303281,117.370282 C121.022351,116.844208 121.332511,115.313075 123.862507,114.246315 C126.428227,113.143834 128.138166,114.359973 128.113808,114.991585 C128.108937,115.619951 127.142732,116.059969 124.888795,117.030932 C122.618619,117.984034 121.606946,117.943442 121.303281,117.370282" id="Fill-75" fill="#FF7B5B"></path>
                        <path d="M660.936056,132.600919 C661.101691,132.764911 658.376831,135.830425 652.722502,139.168718 C647.138,142.503764 638.351218,145.809584 628.244227,145.884273 C618.137236,145.958962 609.301739,142.783038 603.66852,139.5308 C597.967099,136.276938 595.19677,133.250392 595.359157,133.083153 C595.594619,132.786019 598.69297,135.338449 604.402511,138.132808 C610.05684,140.938533 618.57893,143.72315 628.226365,143.653332 C637.877047,143.580266 646.355293,140.670626 651.969025,137.782093 C657.63472,134.903302 660.697347,132.305409 660.936056,132.600919" id="Fill-77" fill="#EC3223"></path>
                        <path d="M599.276428,127.970174 C599.12216,128.309524 596.105003,127.057664 591.022277,125.924333 C588.489034,125.326817 585.415041,124.865691 581.991915,124.440286 C578.555798,124.060344 574.757557,123.758339 570.746588,123.472571 C566.733996,123.191674 562.893534,122.868561 559.405453,122.436661 C555.917372,121.973911 552.783295,121.423482 550.201336,120.725299 C545.017931,119.37277 542.081967,117.771818 542.184271,117.546126 C542.319052,117.205153 545.406036,118.258924 550.539102,119.182799 C553.099951,119.671528 556.190183,120.049846 559.631172,120.392444 C563.08028,120.707438 566.889888,120.965604 570.907352,121.248125 C574.928064,121.533893 578.775021,121.902469 582.259854,122.402564 C585.743064,122.949745 588.867397,123.586229 591.423374,124.39807 C596.55644,125.964925 599.391723,127.757471 599.276428,127.970174" id="Fill-79" fill="#EC3223"></path>
                        <g id="Group-83" transform="translate(518.770843, 42.949835)">
                            <mask id="mask-3" fill="white">
                                <use xlink:href="#path-2"></use>
                            </mask>
                            <g id="Clip-82"></g>
                            <path d="M20.3644611,20.0890504 C30.0005286,18.0448329 39.9841052,19.8049058 49.6997426,21.4237181 C59.4170039,23.0425305 69.5045084,24.5022219 79.0041705,21.8945863 C96.1555264,17.1875281 109.175747,-0.138797566 126.962038,0 C134.285709,0.0576681265 141.188797,3.18488237 148.324098,4.83941577 C157.183954,6.89499897 166.414053,6.67417802 175.389204,8.14036414 C184.365979,9.60655026 193.638299,13.2159985 198.711281,20.7645027 C204.729357,29.722364 203.079502,42.3578683 196.764256,51.1095219 C190.449011,59.8627992 180.335524,65.1917281 169.973585,68.2117793 C162.745722,70.3176966 155.045312,71.5354592 148.79015,75.7261861 C142.463538,79.9656235 138.332403,86.7883412 132.43774,91.6090572 C117.645873,103.703875 94.6258372,100.237311 79.3468079,88.7643639 C75.5079701,85.8823258 71.9500624,82.537538 67.6370534,80.4283732 C50.0943439,71.8423354 24.8642156,83.2081192 9.75569304,67.5866611 C-5.58666732,51.7216505 -3.40093308,25.1289637 20.3644611,20.0890504" id="Fill-81" fill="#EC3223" mask="url(#mask-3)"></path>
                        </g>
                        <path d="M533.320842,369.287685 C533.320842,369.287685 549.393946,403.734129 551.274392,397.3563 C553.149966,390.975225 552.529646,375.655772 551.522845,373.46867 C550.511171,371.281569 543.940977,361.619029 543.940977,361.619029 L533.320842,369.287685 Z" id="Fill-84" fill="#FFB2A0"></path>
                        <path d="M649.543607,90.7396005 C651.031075,92.6441811 650.037264,90.59834 651.721221,93.3456124 C658.720118,93.1020599 663.417985,87.1804865 663.417985,87.1804865 C663.417985,87.1804865 674.526906,87.4743732 674.39862,85.490232 C674.271958,83.5028435 663.749255,84.2448669 663.749255,84.2448669 C663.749255,84.2448669 674.880911,80.7490765 674.270334,79.0036168 C673.663005,77.2597808 660.811667,82.8225202 660.811667,82.8225202 C660.811667,82.8225202 673.779924,74.7739215 671.863753,73.4830932 C669.949206,72.1955123 657.471359,79.2211904 657.471359,79.2211904 C657.471359,79.2211904 668.315589,70.3152869 666.690091,69.1673427 C665.067841,68.0193985 650.025897,79.6108744 650.025897,79.6108744 C650.24512,73.9084983 646.154582,74.1082113 646.154582,74.1082113 L646.323465,88.0312966 C646.323465,88.0312966 648.858332,89.8628115 649.543607,90.7396005" id="Fill-86" fill="#FFC6B2"></path>
                        <path d="M484.877275,27.724285 C482.499923,28.1626795 484.34302,27.3362247 481.25766,28.277961 C476.189549,23.4458792 476.861833,15.8519119 476.861833,15.8519119 C476.861833,15.8519119 468.362477,8.69796279 469.772,7.29997138 C471.189642,5.89873259 478.563653,13.4391183 478.563653,13.4391183 C478.563653,13.4391183 472.563439,3.43398118 474.17757,2.53446057 C475.790076,1.63493996 481.709097,14.3256495 481.709097,14.3256495 C481.709097,14.3256495 477.353867,-0.30211435 479.643529,0.0047618145 C481.929943,0.311637979 486.596957,13.8466629 486.596957,13.8466629 C486.596957,13.8466629 484.401479,-0.00985133619 486.374486,0.209345924 C488.350741,0.426919501 491.905401,19.0814182 491.905401,19.0814182 C495.526639,14.6714941 498.451236,17.5372953 498.451236,17.5372953 L489.271477,27.631735 C489.271477,27.631735 485.970142,27.5245719 484.877275,27.724285" id="Fill-88" fill="#FFC6B2"></path>
                        <path d="M542.536814,85.8828387 C539.46282,85.3778731 532.03035,90.3171181 528.311679,98.3673404 C526.229872,102.873062 524.797616,107.450225 527.186334,114.777909 C528.311679,118.224989 530.666296,118.656888 531.192431,120.201011 C531.856595,122.155926 529.656246,128.317805 529.656246,128.317805 L538.430037,131.860682 C539.000016,127.627739 539.646318,123.368818 543.960951,121.530808 C545.575082,120.842366 547.302884,120.407219 548.826077,119.533677 C552.936102,117.177713 555.131579,112.024142 556.820408,107.804188 C558.080534,104.652619 550.243719,87.1460644 542.536814,85.8828387" id="Fill-90" fill="#FFC6B2"></path>
                        <path d="M532.092544,205.520866 L517.393238,199.623648 C517.393238,199.623648 473.76949,280.510684 473.950797,302.953236 C474.131614,325.394165 533.865814,370.326356 533.865814,370.326356 L543.940328,361.620165 C543.940328,361.620165 525.497992,329.466363 515.639454,318.129805 C505.779292,306.79 532.092544,205.520866 532.092544,205.520866" id="Fill-92" fill="#FFB2A0"></path>
                        <path d="M605.076581,297.663276 C605.076581,297.663276 637.474489,282.293488 630.964378,280.936089 C624.454268,279.585185 609.228827,281.447549 607.132405,282.629591 C605.032736,283.813256 595.935795,291.144187 595.935795,291.144187 L605.076581,297.663276 Z" id="Fill-94" fill="#FFC6B2"></path>
                        <path d="M546.531381,204.819272 L524.232345,212.931194 C524.232345,212.931194 501.926814,311.027651 510.442408,326.428289 C518.954755,341.83542 542.869545,331.640312 576.928676,313.054008 L605.456892,297.482884 L595.934496,291.145648 C595.934496,291.145648 562.737642,297.650124 553.414982,304.135115 C553.414982,304.135115 558.280109,290.351667 564.767485,270.895069 C571.253237,251.436847 575.727009,231.574327 546.531381,204.819272" id="Fill-96" fill="#FFC6B2"></path>
                        <path d="M519.084178,137.98895 C519.084178,131.471485 521.182223,126.757932 527.700452,126.757932 C534.218682,126.757932 543.229558,129.042455 543.229558,135.561543 C543.229558,142.082256 538.093245,152.667048 531.571768,152.667048 C525.053538,152.667048 519.084178,144.509663 519.084178,137.98895" id="Fill-98" fill="#FFC6B2"></path>
                        <path d="M524.231695,125.823989 C524.231695,125.823989 503.962502,103.891274 499.907689,82.4050712 C495.851252,60.922116 488.962779,26.0600095 488.962779,26.0600095 L481.259121,28.277961 C481.259121,28.277961 477.608653,75.9217033 481.259121,83.2169129 C484.906342,90.5137461 502.734853,139.091106 508.163464,151.848387 L524.231695,125.823989 Z" id="Fill-100" fill="#FFC6B2"></path>
                        <path d="M546.008169,142.917803 C546.008169,142.917803 547.567088,136.095086 573.198313,126.82223 C598.829538,117.550998 647.185254,87.4982413 647.185254,87.4982413 L652.009784,93.0171412 C652.009784,93.0171412 625.735504,123.36216 610.44998,128.684595 C595.164455,134.008653 562.698345,154.994761 559.358036,156.673649 C554.306164,159.214714 554.367872,162.411746 546.008169,142.917803" id="Fill-102" fill="#FFC6B2"></path>
                        <path d="M524.231695,125.823989 C524.231695,125.823989 503.637727,132.497328 503.637727,163.829547 C503.637727,163.829547 503.650718,206.741876 508.504477,214.548546 C508.504477,214.548546 516.39488,216.570031 526.232308,214.548546 C536.547155,212.428015 546.530732,204.819435 546.530732,204.819435 L562.730497,156.19174 L560.793216,133.408214 L538.766991,129.155788 C538.766991,129.155788 545.085484,158.679223 522.224587,145.98689 C517.781668,143.520515 528.76068,126.770597 528.76068,126.770597 L524.231695,125.823989 Z" id="Fill-104" fill="#22343D"></path>
                        <path d="M506.806717,151.306564 L496.659129,130.167829 C496.659129,130.167829 498.11412,117.343978 516.743201,112.748954 C516.743201,112.748954 518.626895,119.212838 520.692462,121.68246 C522.756406,124.150459 528.767987,126.777579 528.767987,126.777579 L506.806717,151.306564 Z" id="Fill-106" fill="#22343D"></path>
                        <path d="M545.170737,159.803299 L577.438735,153.190037 C577.438735,153.190037 583.049219,141.567711 569.746444,127.742046 C569.746444,127.742046 544.576399,129.261814 541.318908,129.532969 C538.111757,129.799253 540.31373,132.268876 540.31373,132.268876 L545.170737,159.803299 Z" id="Fill-108" fill="#22343D"></path>
                        <path d="M508.452838,204.096246 C508.452838,204.096246 477.932128,260.517621 472.89,270.599071 C472.89,270.599071 562.932182,311.955911 599.483959,262.175402 C599.483959,262.175402 578.691878,218.173581 546.548919,201.422039 L532.68266,197.270281 L508.995212,203.825091" id="Fill-110" fill="#22343D"></path>
                        <path d="M555.638715,107.270646 C555.638715,107.270646 559.115429,103.79434 561.254071,106.200639 C563.392713,108.606937 553.500073,112.083244 553.500073,112.083244 L555.638715,107.270646 Z" id="Fill-112" fill="#FFC6B2"></path>
                        <path d="M619.23301,59.8594152 C619.266478,59.9795678 617.923534,60.5608464 615.359438,61.1697277 C612.801836,61.7851037 609.006843,62.3436508 604.292737,62.4394481 C599.581879,62.5336218 593.979514,62.1147115 587.847766,61.2833856 C581.711147,60.4699202 575.045145,59.2748892 568.031634,58.5101343 C561.029489,57.7616162 554.296908,57.6252268 548.334043,58.5880711 C542.369555,59.5346785 537.20726,61.4879697 533.261246,63.7692449 C529.315233,66.0683806 526.569262,68.6191872 524.883681,70.5497468 C523.188357,72.48193 522.425136,73.7159294 522.253005,73.6120137 C522.15882,73.5633032 522.668717,72.1734302 524.204902,70.0074365 C525.731343,67.8479376 528.42535,64.9983732 532.442814,62.4215876 C536.45703,59.8610389 541.793079,57.6609479 547.99303,56.5600905 C554.2011,55.4429963 561.144784,55.5290515 568.268719,56.2921827 C575.399149,57.0699271 582.073271,58.3331528 588.13844,59.2489102 C594.201985,60.1825282 599.682559,60.7540648 604.297609,60.8612279 C613.548818,61.1193935 619.147935,59.4778496 619.23301,59.8594152" id="Fill-114" fill="#EC3223"></path>
                        <path d="M537.933943,105.297221 C537.9242,105.433611 536.933637,105.529408 535.42181,105.02769 C535.048319,104.896171 534.606626,104.724061 534.195786,104.347366 C533.992801,104.159019 533.804432,103.908972 533.689137,103.60859 C533.523502,103.188056 533.536493,102.710694 533.700504,102.346988 C533.74922,102.273923 533.745973,102.100189 533.841781,102.096941 L534.135702,102.087199 C534.324072,102.06122 534.546542,102.12292 534.764141,102.163512 C535.163614,102.239825 535.2919,102.22846 535.576078,102.247944 C536.074608,102.25931 536.591,102.207352 537.107391,102.093694 C539.218427,101.648805 540.631198,100.1128 541.264509,98.8495744 C541.928673,97.5782303 541.987132,96.6218808 542.164135,96.6332465 C542.289173,96.6170097 542.536002,97.6334355 541.987132,99.1678163 C541.707826,99.9195818 541.222288,100.781758 540.437957,101.538394 C539.658497,102.293407 538.578621,102.913654 537.352596,103.181562 C536.740396,103.317951 536.124948,103.369909 535.532234,103.339059 C535.274038,103.32607 534.868069,103.274112 534.749527,103.248133 C534.640727,103.230272 534.653718,103.205917 534.632608,103.218906 C534.619617,103.231896 534.613121,103.253004 534.614745,103.283854 C534.65859,103.429985 534.738159,103.569622 534.850207,103.694646 C535.075925,103.949564 535.403948,104.139535 535.723851,104.298656 C537.031069,104.940011 537.958301,105.129982 537.933943,105.297221" id="Fill-116" fill="#FF7B5B"></path>
                        <path d="M530.695525,105.673104 L542.582282,110.355807 C542.582282,110.355807 532.135902,117.558466 530.695525,105.673104" id="Fill-118" fill="#FFFFFF"></path>
                        <path d="M547.658187,107.926289 C547.23598,108.728389 545.927138,108.868026 544.73359,108.23966 C543.540043,107.612918 542.914852,106.453609 543.335435,105.653133 C543.757642,104.851033 545.068108,104.709773 546.261656,105.338138 C547.455203,105.966504 548.080394,107.12419 547.658187,107.926289" id="Fill-120" fill="#FFB2A0"></path>
                        <path d="M534.39195,100.893142 C534.03145,101.724468 532.737222,101.964773 531.49983,101.428958 C530.262438,100.893142 529.549558,99.7857903 529.910058,98.9544643 C530.268934,98.1231384 531.564785,97.8828333 532.802177,98.4186488 C534.039569,98.9544643 534.75245,100.061816 534.39195,100.893142" id="Fill-122" fill="#FFB2A0"></path>
                        <path d="M529.988978,118.70771 C529.988978,118.70771 534.155838,122.197005 538.502949,121.073416 C538.502949,121.073416 537.004113,123.320594 531.234489,122.495763 C531.234489,122.495763 531.713532,120.019646 529.988978,118.70771" id="Fill-124" fill="#FFA192"></path>
                        <path d="M546.517903,100.461892 C546.517903,100.981471 546.095696,101.403628 545.576056,101.403628 C545.056416,101.403628 544.634209,100.981471 544.634209,100.461892 C544.634209,99.9423133 545.056416,99.5201556 545.576056,99.5201556 C546.095696,99.5201556 546.517903,99.9423133 546.517903,100.461892" id="Fill-126" fill="#22343D"></path>
                        <path d="M538.810835,97.6862052 C538.810835,98.2057839 538.388628,98.6279416 537.868988,98.6279416 C537.349349,98.6279416 536.928765,98.2057839 536.928765,97.6862052 C536.928765,97.1666265 537.349349,96.7444689 537.868988,96.7444689 C538.388628,96.7444689 538.810835,97.1666265 538.810835,97.6862052" id="Fill-128" fill="#22343D"></path>
                        <path d="M549.543667,97.9534635 C549.252994,98.0768635 548.691133,97.3965401 547.840223,96.8461114 C547.007176,96.2713275 546.162762,96.0131618 546.164386,95.6981673 C546.13678,95.3961622 547.315712,95.150986 548.460543,95.9189882 C549.606998,96.6821194 549.834341,97.8625373 549.543667,97.9534635" id="Fill-130" fill="#775298"></path>
                        <path d="M535.961261,93.3844184 C535.941775,93.0905317 536.953448,92.7203319 538.307759,92.7560529 C539.686428,92.7852792 540.704597,93.4542368 540.56332,93.7335103 C540.43341,94.0160313 539.4737,93.894255 538.263914,93.8715234 C537.047633,93.8358024 535.980748,93.704284 535.961261,93.3844184" id="Fill-132" fill="#775298"></path>
                        <path d="M540.20558,383.284161 C540.20558,383.284161 545.150276,400.832931 550.255736,399.395971 C555.361195,397.960635 551.522357,373.468995 551.522357,373.468995 L546.428265,365.418772 C546.428265,365.418772 551.213821,406.415155 540.20558,383.284161" id="Fill-134" fill="#22343D"></path>
                        <path d="M602.556654,285.994675 C602.556654,285.994675 606.15191,282.071856 610.510388,281.419135 C614.870489,280.76479 630.451559,278.912168 632.739597,280.982364 C635.029259,283.05256 620.11073,289.993807 620.11073,289.993807 C620.11073,289.993807 625.30875,286.681493 623.150622,285.450741 C619.336142,283.270134 602.556654,285.994675 602.556654,285.994675" id="Fill-136" fill="#22343D"></path>
                        <polygon id="Fill-138" fill="#22343D" points="596.374403 290.692965 601.25252 300.59581 603.91405 299.118258 597.408811 289.363168"></polygon>
                        <polygon id="Fill-140" fill="#22343D" points="541.826369 357.649285 529.851923 368.440285 533.400087 371.397012 543.451867 360.458257"></polygon>
                        <path d="M291.482503,250.222169 C288.077239,241.772521 286.768397,232.364899 281.687295,224.803405 C274.374991,213.923103 260.330106,208.524355 254.396471,196.833835 C251.876219,191.868611 251.085392,186.188966 251.058879,180.621356 C251.010694,169.606288 254.308782,157.896283 262.817881,150.896584 C272.595226,142.852856 287.265302,142.96489 298.716861,148.368509 C310.165172,153.772127 318.91298,163.580799 326.350323,173.826241 C333.789289,184.070059 340.301023,195.06402 348.962766,204.296284 C355.385187,211.141733 363.00278,217.045446 367.8403,225.08755 C381.102478,247.135547 367.457066,275.032051 344.044052,282.989724 C323.471194,289.979681 298.599942,267.887844 291.482503,250.222169" id="Fill-142" fill="#22343D"></path>
                        <path d="M262.17434,405.722329 C264.210678,407.396347 261.989218,406.237037 264.951164,408.165973 C264.290248,415.565098 257.445619,420.226693 257.445619,420.226693 C257.445619,420.226693 257.15657,432.006516 254.957844,431.764587 C252.754248,431.525906 254.165394,420.421535 254.165394,420.421535 C254.165394,420.421535 249.659144,432.024377 247.752716,431.285601 C245.847912,430.550072 252.746128,417.235868 252.746128,417.235868 C252.746128,417.235868 243.077583,430.541954 241.749254,428.444155 C240.422549,426.34798 248.930025,413.507891 248.930025,413.507891 C248.930025,413.507891 238.425184,424.519712 237.238133,422.736908 C236.052705,420.958974 249.774439,405.644392 249.774439,405.644392 C243.423468,405.574574 243.873281,401.252329 243.873281,401.252329 L259.342304,402.16971 C259.342304,402.16971 261.237365,404.949456 262.17434,405.722329" id="Fill-144" fill="#FFC6B2"></path>
                        <path d="M409.954007,183.556001 C412.600922,184.020375 410.546721,183.143586 413.981215,184.142151 C419.622552,179.017806 418.873947,170.96596 418.873947,170.96596 C418.873947,170.96596 428.334636,163.380111 426.765974,161.897688 C425.187568,160.412018 416.98051,168.405411 416.98051,168.405411 C416.98051,168.405411 423.657879,157.797888 421.861875,156.843162 C420.069118,155.89006 413.481061,169.347148 413.481061,169.347148 C413.481061,169.347148 418.328325,153.8361 415.778843,154.160837 C413.235857,154.487197 408.041084,168.838935 408.041084,168.838935 C408.041084,168.838935 410.48339,154.146224 408.286289,154.37841 C406.087564,154.608973 402.53128,173.85774 402.53128,173.85774 C397.351122,169.642658 393.725012,172.34122 393.725012,172.34122 L405.062899,183.456957 C405.062899,183.456957 408.737726,183.344922 409.954007,183.556001" id="Fill-146" fill="#FFC6B2"></path>
                        <path d="M345.19408,247.889585 C349.979636,247.142691 364.573391,256.599023 360.859591,275.802327 C360.549431,277.414645 358.443267,280.964016 357.918755,282.431826 C357.256215,284.290944 362.41851,291.095801 362.41851,291.095801 L349.091377,295.353099 C348.523021,291.327988 349.479483,285.445383 345.172969,283.696676 C343.562086,283.042331 341.837532,282.628292 340.317586,281.79859 C336.214057,279.557907 334.023451,274.656006 332.33787,270.643885 C331.079368,267.644941 330.121282,264.420306 330.157008,261.166445 C330.244697,252.973338 337.501789,249.091111 345.19408,247.889585" id="Fill-148" fill="#FFC6B2"></path>
                        <path d="M371.881797,300.482639 C371.881797,293.570619 369.689568,290.932134 362.434099,290.932134 C355.178631,290.932134 345.601023,293.570619 345.601023,300.482639 C345.601023,307.396283 350.724345,316.047269 357.983061,316.047269 C365.236905,316.047269 371.881797,307.396283 371.881797,300.482639" id="Fill-150" fill="#FFC6B2"></path>
                        <path d="M366.152121,287.581825 C366.152121,287.581825 388.7126,264.324184 393.225346,241.540659 C397.739715,218.758757 405.407648,181.790733 405.407648,181.790733 L413.981702,184.141826 C413.981702,184.141826 418.044634,234.664359 413.981702,242.401211 C409.922017,250.139686 386.906853,303.872241 387.35829,317.626463 L366.152121,287.581825 Z" id="Fill-152" fill="#FFC6B2"></path>
                        <path d="M325.936722,298.843044 C325.936722,298.843044 318.265542,300.132249 306.533053,326.785012 C294.800564,353.436151 258.701848,403.052669 258.701848,403.052669 L264.568904,408.454664 C264.568904,408.454664 299.764747,382.235424 306.533053,366.331445 C313.299735,350.427466 321.873789,330.654249 325.936722,331.511554 C329.996407,332.37373 347.144515,308.728029 325.936722,298.843044" id="Fill-154" fill="#FFC6B2"></path>
                        <path d="M386.336386,321.179732 L396.841226,292.188865 C396.841226,292.188865 395.2206,278.59214 374.486978,273.717842 L362.741498,290.638247 L386.336386,321.179732 Z" id="Fill-156" fill="#EC3223"></path>
                        <path d="M329.438931,296.618435 C329.438931,296.618435 317.045525,297.662464 307.000241,319.72345 C307.000241,319.72345 318.047455,334.973085 326.129476,335.487792 C326.129476,335.487792 356.146784,309.833595 329.438931,296.618435" id="Fill-158" fill="#EC3223"></path>
                        <path d="M363.491241,558.23751 C363.491241,558.23751 345.601023,594.765515 343.509473,588.002874 C341.421171,581.236985 342.111318,564.990409 343.231791,562.671789 C344.357135,560.351546 351.671063,550.106103 351.671063,550.106103 L363.491241,558.23751 Z" id="Fill-160" fill="#FFC6B2"></path>
                        <path d="M364.858218,384.576451 L381.218747,378.322022 C381.218747,378.322022 429.772576,464.097969 429.57184,487.896297 C429.369855,511.691377 362.885211,559.339991 362.885211,559.339991 L351.670738,550.106103 C351.670738,550.106103 383.183635,503.779168 394.15615,491.757416 C399.64322,485.744917 360.361711,456.281557 354.411837,427.932045 C348.461964,399.582533 364.858218,384.576451 364.858218,384.576451" id="Fill-162" fill="#22343D"></path>
                        <path d="M266.490109,539.102238 C266.490109,539.102238 233.025317,563.765989 234.416977,556.844227 C235.813508,549.91597 244.238166,535.776935 246.350826,534.203586 C248.466733,532.633484 259.89231,526.716781 259.89231,526.716781 L266.490109,539.102238 Z" id="Fill-164" fill="#FFC6B2"></path>
                        <path d="M320.345886,414.950696 L368.750319,386.901565 C368.750319,386.901565 370.671362,484.335559 359.05092,505.402852 C347.432103,526.470144 265.4216,539.816821 265.4216,539.816821 L259.89231,526.716944 C259.89231,526.716944 310.488972,496.574885 326.02295,490.676043 C341.558551,484.773954 320.345886,414.950696 320.345886,414.950696" id="Fill-166" fill="#22343D"></path>
                        <path d="M349.173707,367.714823 C349.173707,367.714823 313.532924,380.332467 320.346698,414.951021 C327.158849,449.567951 338.514599,456.057814 338.514599,456.057814 L358.9543,422.52388 L379.475194,378.608115 L358.9543,376.005351 L349.173707,367.714823 Z" id="Fill-168" fill="#22343D"></path>
                        <path d="M366.152121,287.581825 C366.152121,287.581825 392.392299,302.285902 392.392299,335.511336 C392.392299,335.511336 389.058486,373.390246 383.655857,381.66616 C383.655857,381.66616 374.873947,383.811046 363.924166,381.66616 C352.443377,379.418983 341.332832,371.3509 341.332832,371.3509 L332.365801,324.975254 L325.389639,297.897086 L329.171641,296.650097 L348.90658,294.48248 C348.90658,294.48248 346.071296,323.958828 368.107265,309.321322 C372.748296,306.237948 362.329522,290.868161 362.329522,290.868161 L366.152121,287.581825 Z" id="Fill-170" fill="#EC3223"></path>
                        <polygon id="Fill-172" fill="#FFFFFF" points="382.21337 162.027908 437.230217 194.118387 468.178005 135.669031 416.598899 107.017514"></polygon>
                        <polygon id="Fill-174" fill="#FFFFFF" points="458.751093 441.819085 498.09918 417.463833 465.590849 360.727464 429.622043 384.048429"></polygon>
                        <path d="M265.012871,200.053599 C265.116799,199.961049 266.331457,201.06353 268.2525,203.312332 C270.165423,205.56438 272.774989,208.988729 275.394297,213.609732 C278.023349,218.211251 280.624795,224.050016 282.482507,230.827271 C284.405173,237.554191 285.694529,245.115685 288.649979,252.399528 C290.18454,255.997611 292.043876,259.34727 294.257216,262.308868 C296.490043,265.250983 298.96645,267.832639 301.515932,270.084688 C306.72532,274.468633 312.18316,277.483813 317.046662,279.226026 C321.905293,280.992593 326.067281,281.784951 328.961025,282.069095 C331.85152,282.388961 333.485137,282.436048 333.486791,282.626019 C333.49488,282.744548 331.866135,282.992971 328.897693,282.936142 C325.930876,282.913411 321.612995,282.346745 316.527022,280.716567 C311.437802,279.109121 305.687664,276.134533 300.189227,271.65479 C297.491973,269.352407 294.87104,266.686319 292.509928,263.622428 C290.168302,260.540677 288.190423,257.017284 286.584412,253.245467 C283.505547,245.632016 282.289266,238.003951 280.498133,231.366334 C278.788193,224.705984 276.410842,218.974382 274.007509,214.363121 C271.61879,209.738871 269.247934,206.233338 267.567225,203.843276 C265.876772,201.458085 264.886209,200.165633 265.012871,200.053599" id="Fill-176" fill="#22343D"></path>
                        <path d="M332.606621,162.509295 C333.010966,162.448117 333.403943,167.863101 336.434092,175.872731 C337.947543,179.862122 340.198232,184.452275 343.431365,189.053793 C345.047119,191.3578 346.906455,193.62771 349.010995,195.889501 C351.100921,198.161034 353.377592,200.468288 355.529225,203.056439 C359.843858,208.279829 362.812299,213.925376 365.606986,218.90846 C368.382187,223.940255 370.592279,228.726874 371.716,233.008527 C372.888437,237.277191 372.956639,240.951586 372.584772,243.388735 C372.196666,245.83725 371.587714,247.077744 371.487034,247.044331 C371.293793,246.993312 371.608824,245.683 371.719248,243.310798 C371.815056,240.941844 371.513016,237.489893 370.202549,233.45504 C368.935928,229.40395 366.657633,224.838152 363.814229,219.91352 C360.926982,214.990512 357.932558,209.458623 353.811166,204.480409 C351.742351,201.989679 349.498157,199.690543 347.395241,197.362181 C345.280957,195.045185 343.35829,192.632392 341.73604,190.217974 C338.481797,185.384269 336.309054,180.5668 334.948248,176.402052 C333.556588,172.238928 332.963874,168.725277 332.682943,166.304365 C332.405261,163.878582 332.479959,162.521183 332.606621,162.509295" id="Fill-178" fill="#22343D"></path>
                        <path d="M349.473312,268.762847 C349.452202,268.606974 350.34858,268.46409 351.194618,267.470395 C351.389483,267.241456 351.585972,266.906977 351.582724,266.712135 C351.577853,266.50268 351.431704,266.138975 351.180004,265.92952 C350.91856,265.69571 350.627886,265.582052 350.244652,265.62102 C349.848427,265.650246 349.366136,265.846712 348.736073,265.940886 C347.355781,266.124362 346.279152,265.344994 345.571143,264.713381 C344.843648,264.049295 344.288283,263.375466 343.874195,262.771456 C343.049267,261.555317 342.792695,260.676904 342.919357,260.611957 C343.065506,260.53402 343.562411,261.26143 344.492891,262.281103 C344.957319,262.787693 345.543537,263.368971 346.235308,263.929142 C346.917335,264.473076 347.752006,264.968299 348.585053,264.836781 C349.026747,264.779952 349.541515,264.573744 350.16833,264.531529 C350.806513,264.468205 351.516145,264.762092 351.905875,265.200486 C352.319963,265.648623 352.552177,266.17632 352.503461,266.801438 C352.380046,267.441169 352.040657,267.739927 351.759727,268.0192 C350.546693,269.081089 349.434339,268.907355 349.473312,268.762847" id="Fill-180" fill="#FF7B5B"></path>
                        <path d="M355.975303,269.677793 L345.408756,273.519428 C345.408756,273.519428 354.374164,281.361819 355.975303,269.677793" id="Fill-182" fill="#FFFFFF"></path>
                        <path d="M344.354375,269.023773 C344.776582,269.825873 344.15139,270.985183 342.957843,271.611925 C341.764296,272.24029 340.455453,272.100653 340.033246,271.298554 C339.611039,270.498078 340.23623,269.338768 341.429778,268.710402 C342.623325,268.082037 343.932167,268.221674 344.354375,269.023773" id="Fill-184" fill="#FFB2A0"></path>
                        <path d="M356.880775,262.601131 C357.22666,263.438952 356.495917,264.533315 355.250406,265.048022 C354.003271,265.564354 352.712291,265.30294 352.366406,264.46512 C352.020521,263.627299 352.751264,262.532937 353.998399,262.018229 C355.24391,261.503521 356.53489,261.763311 356.880775,262.601131" id="Fill-186" fill="#FFB2A0"></path>
                        <path d="M345.721352,283.977735 C345.721352,283.977735 349.256525,284.697027 353.762775,283.571814 C353.762775,283.571814 351.541316,285.72969 347.911957,286.231408 C347.911957,286.231408 347.098397,284.727877 345.721352,283.977735" id="Fill-188" fill="#FFA192"></path>
                        <path d="M349.333009,260.229092 C349.729235,260.565195 349.777951,261.159463 349.441809,261.555642 C349.105667,261.95182 348.512953,262.000531 348.115104,261.664428 C347.718879,261.32995 347.670163,260.735681 348.006304,260.337879 C348.342446,259.9417 348.936784,259.89299 349.333009,260.229092" id="Fill-190" fill="#22343D"></path>
                        <path d="M342.232621,264.31363 C342.628846,264.649733 342.677562,265.244001 342.34142,265.64018 C342.006902,266.036358 341.412565,266.085069 341.014716,265.748966 C340.61849,265.412864 340.569774,264.820219 340.905916,264.422417 C341.242058,264.026238 341.836396,263.977528 342.232621,264.31363" id="Fill-192" fill="#22343D"></path>
                        <path d="M349.375068,256.298967 C349.280883,256.600972 348.39912,256.589606 347.429667,256.883493 C346.452095,257.146529 345.709984,257.623892 345.469651,257.417684 C345.221198,257.245574 345.79605,256.186932 347.122755,255.810238 C348.446212,255.428672 349.493611,256.019693 349.375068,256.298967" id="Fill-194" fill="#22343D"></path>
                        <path d="M337.108812,263.706373 C336.871726,263.531015 337.243593,262.521084 338.146467,261.511153 C339.059084,260.47849 340.228273,260.134269 340.350064,260.421661 C340.481598,260.702558 339.768717,261.356903 338.968147,262.264542 C338.15621,263.168933 337.365384,263.899591 337.108812,263.706373" id="Fill-196" fill="#22343D"></path>
                        <path d="M333.123663,271.551199 C333.123663,271.551199 329.734638,268.704882 328.107516,271.280044 C326.482019,273.855206 335.42794,275.210981 335.42794,275.210981 L333.123663,271.551199 Z" id="Fill-198" fill="#FFC6B2"></path>
                        <path d="M251.634911,531.086925 C251.634911,531.086925 246.776281,533.199337 245.509659,534.467434 C244.241414,535.733907 232.622596,555.799387 234.101945,558.333957 C235.581294,560.868526 247.232589,552.264628 247.232589,552.264628 C247.232589,552.264628 237.48285,554.110756 251.634911,531.086925" id="Fill-200" fill="#EC3223"></path>
                        <path d="M346.444463,557.620672 C346.444463,557.620672 342.993731,561.350273 342.4611,563.063259 C341.928469,564.772998 340.975255,587.939713 343.464654,589.495201 C345.952429,591.052314 352.753213,578.269054 352.753213,578.269054 C352.753213,578.269054 344.622476,584.637141 346.444463,557.674254" id="Fill-202" fill="#EC3223"></path>
                    </g>
                </g>
            </g>
        </g>
    </g>
</svg>